<mxfile host="app.diagrams.net" modified="2021-10-25T15:17:22.400Z" agent="5.0 (Windows NT 10.0; Win64; x64) AppleWebKit/537.36 (KHTML, like Gecko) Chrome/93.0.4577.82 YaBrowser/21.9.1.684 Yowser/2.5 Safari/537.36" etag="afcb8RQOUzAxUaCBt7Fz" version="15.5.9" type="github" pages="3">
  <diagram id="Ucg4Rn_GvzkHBU9AiUJN" name="Диаграмма классов">
    <mxGraphModel dx="990" dy="575" grid="1" gridSize="10" guides="1" tooltips="1" connect="1" arrows="1" fold="1" page="1" pageScale="1" pageWidth="827" pageHeight="1169" math="0" shadow="0">
      <root>
        <mxCell id="0" />
        <mxCell id="1" parent="0" />
        <mxCell id="VcC2zESvDWYvlx2e1C_T-5" value="Manager" style="swimlane;fontStyle=1;align=center;verticalAlign=top;childLayout=stackLayout;horizontal=1;startSize=26;horizontalStack=0;resizeParent=1;resizeParentMax=0;resizeLast=0;collapsible=1;marginBottom=0;" parent="1" vertex="1">
          <mxGeometry x="200" y="186" width="160" height="34" as="geometry">
            <mxRectangle x="90" y="120" width="100" height="26" as="alternateBounds" />
          </mxGeometry>
        </mxCell>
        <mxCell id="VcC2zESvDWYvlx2e1C_T-7" value="" style="line;strokeWidth=1;fillColor=none;align=left;verticalAlign=middle;spacingTop=-1;spacingLeft=3;spacingRight=3;rotatable=0;labelPosition=right;points=[];portConstraint=eastwest;" parent="VcC2zESvDWYvlx2e1C_T-5" vertex="1">
          <mxGeometry y="26" width="160" height="8" as="geometry" />
        </mxCell>
        <mxCell id="VcC2zESvDWYvlx2e1C_T-16" value="Person" style="swimlane;fontStyle=1;align=center;verticalAlign=top;childLayout=stackLayout;horizontal=1;startSize=26;horizontalStack=0;resizeParent=1;resizeParentMax=0;resizeLast=0;collapsible=1;marginBottom=0;" parent="1" vertex="1">
          <mxGeometry x="90" y="2" width="200" height="134" as="geometry" />
        </mxCell>
        <mxCell id="VcC2zESvDWYvlx2e1C_T-17" value="+ Name: String" style="text;strokeColor=none;fillColor=none;align=left;verticalAlign=top;spacingLeft=4;spacingRight=4;overflow=hidden;rotatable=0;points=[[0,0.5],[1,0.5]];portConstraint=eastwest;" parent="VcC2zESvDWYvlx2e1C_T-16" vertex="1">
          <mxGeometry y="26" width="200" height="24" as="geometry" />
        </mxCell>
        <mxCell id="VcC2zESvDWYvlx2e1C_T-28" value="+ NameOrganization: Organization" style="text;strokeColor=none;fillColor=none;align=left;verticalAlign=top;spacingLeft=4;spacingRight=4;overflow=hidden;rotatable=0;points=[[0,0.5],[1,0.5]];portConstraint=eastwest;" parent="VcC2zESvDWYvlx2e1C_T-16" vertex="1">
          <mxGeometry y="50" width="200" height="24" as="geometry" />
        </mxCell>
        <mxCell id="VcC2zESvDWYvlx2e1C_T-18" value="" style="line;strokeWidth=1;fillColor=none;align=left;verticalAlign=middle;spacingTop=-1;spacingLeft=3;spacingRight=3;rotatable=0;labelPosition=right;points=[];portConstraint=eastwest;" parent="VcC2zESvDWYvlx2e1C_T-16" vertex="1">
          <mxGeometry y="74" width="200" height="8" as="geometry" />
        </mxCell>
        <mxCell id="VcC2zESvDWYvlx2e1C_T-22" value="+ GetOrder(): void" style="text;strokeColor=none;fillColor=none;align=left;verticalAlign=top;spacingLeft=4;spacingRight=4;overflow=hidden;rotatable=0;points=[[0,0.5],[1,0.5]];portConstraint=eastwest;" parent="VcC2zESvDWYvlx2e1C_T-16" vertex="1">
          <mxGeometry y="82" width="200" height="26" as="geometry" />
        </mxCell>
        <mxCell id="VcC2zESvDWYvlx2e1C_T-30" value="+ TakeOrder():void" style="text;strokeColor=none;fillColor=none;align=left;verticalAlign=top;spacingLeft=4;spacingRight=4;overflow=hidden;rotatable=0;points=[[0,0.5],[1,0.5]];portConstraint=eastwest;" parent="VcC2zESvDWYvlx2e1C_T-16" vertex="1">
          <mxGeometry y="108" width="200" height="26" as="geometry" />
        </mxCell>
        <mxCell id="VcC2zESvDWYvlx2e1C_T-31" value="Organization" style="swimlane;fontStyle=0;childLayout=stackLayout;horizontal=1;startSize=26;fillColor=none;horizontalStack=0;resizeParent=1;resizeParentMax=0;resizeLast=0;collapsible=1;marginBottom=0;align=left;verticalAlign=top;" parent="1" vertex="1">
          <mxGeometry x="334" y="2" width="170" height="52" as="geometry" />
        </mxCell>
        <mxCell id="VcC2zESvDWYvlx2e1C_T-32" value="+ NameOrganization:String" style="text;strokeColor=none;fillColor=none;align=left;verticalAlign=top;spacingLeft=4;spacingRight=4;overflow=hidden;rotatable=0;points=[[0,0.5],[1,0.5]];portConstraint=eastwest;" parent="VcC2zESvDWYvlx2e1C_T-31" vertex="1">
          <mxGeometry y="26" width="170" height="26" as="geometry" />
        </mxCell>
        <mxCell id="VcC2zESvDWYvlx2e1C_T-35" value="Client" style="swimlane;fontStyle=1;align=center;verticalAlign=top;childLayout=stackLayout;horizontal=1;startSize=26;horizontalStack=0;resizeParent=1;resizeParentMax=0;resizeLast=0;collapsible=1;marginBottom=0;fillColor=none;gradientColor=none;" parent="1" vertex="1">
          <mxGeometry x="470" y="310" width="160" height="60" as="geometry" />
        </mxCell>
        <mxCell id="VcC2zESvDWYvlx2e1C_T-37" value="" style="line;strokeWidth=1;fillColor=none;align=left;verticalAlign=middle;spacingTop=-1;spacingLeft=3;spacingRight=3;rotatable=0;labelPosition=right;points=[];portConstraint=eastwest;" parent="VcC2zESvDWYvlx2e1C_T-35" vertex="1">
          <mxGeometry y="26" width="160" height="8" as="geometry" />
        </mxCell>
        <mxCell id="VcC2zESvDWYvlx2e1C_T-38" value="+ GetMoney(): void" style="text;strokeColor=none;fillColor=none;align=left;verticalAlign=top;spacingLeft=4;spacingRight=4;overflow=hidden;rotatable=0;points=[[0,0.5],[1,0.5]];portConstraint=eastwest;" parent="VcC2zESvDWYvlx2e1C_T-35" vertex="1">
          <mxGeometry y="34" width="160" height="26" as="geometry" />
        </mxCell>
        <mxCell id="VcC2zESvDWYvlx2e1C_T-39" value="Storekeeper" style="swimlane;fontStyle=1;align=center;verticalAlign=top;childLayout=stackLayout;horizontal=1;startSize=26;horizontalStack=0;resizeParent=1;resizeParentMax=0;resizeLast=0;collapsible=1;marginBottom=0;fillColor=none;gradientColor=none;" parent="1" vertex="1">
          <mxGeometry x="160" y="230" width="160" height="60" as="geometry" />
        </mxCell>
        <mxCell id="VcC2zESvDWYvlx2e1C_T-41" value="" style="line;strokeWidth=1;fillColor=none;align=left;verticalAlign=middle;spacingTop=-1;spacingLeft=3;spacingRight=3;rotatable=0;labelPosition=right;points=[];portConstraint=eastwest;" parent="VcC2zESvDWYvlx2e1C_T-39" vertex="1">
          <mxGeometry y="26" width="160" height="8" as="geometry" />
        </mxCell>
        <mxCell id="VcC2zESvDWYvlx2e1C_T-42" value="+ CollectOrder(): void" style="text;strokeColor=none;fillColor=none;align=left;verticalAlign=top;spacingLeft=4;spacingRight=4;overflow=hidden;rotatable=0;points=[[0,0.5],[1,0.5]];portConstraint=eastwest;" parent="VcC2zESvDWYvlx2e1C_T-39" vertex="1">
          <mxGeometry y="34" width="160" height="26" as="geometry" />
        </mxCell>
        <mxCell id="VcC2zESvDWYvlx2e1C_T-43" value="Driver" style="swimlane;fontStyle=1;align=center;verticalAlign=top;childLayout=stackLayout;horizontal=1;startSize=26;horizontalStack=0;resizeParent=1;resizeParentMax=0;resizeLast=0;collapsible=1;marginBottom=0;fillColor=none;gradientColor=none;" parent="1" vertex="1">
          <mxGeometry x="80" y="310" width="160" height="60" as="geometry" />
        </mxCell>
        <mxCell id="VcC2zESvDWYvlx2e1C_T-45" value="" style="line;strokeWidth=1;fillColor=none;align=left;verticalAlign=middle;spacingTop=-1;spacingLeft=3;spacingRight=3;rotatable=0;labelPosition=right;points=[];portConstraint=eastwest;" parent="VcC2zESvDWYvlx2e1C_T-43" vertex="1">
          <mxGeometry y="26" width="160" height="8" as="geometry" />
        </mxCell>
        <mxCell id="VcC2zESvDWYvlx2e1C_T-46" value="+ TakeMoney(): void" style="text;strokeColor=none;fillColor=none;align=left;verticalAlign=top;spacingLeft=4;spacingRight=4;overflow=hidden;rotatable=0;points=[[0,0.5],[1,0.5]];portConstraint=eastwest;" parent="VcC2zESvDWYvlx2e1C_T-43" vertex="1">
          <mxGeometry y="34" width="160" height="26" as="geometry" />
        </mxCell>
        <mxCell id="VcC2zESvDWYvlx2e1C_T-47" value="Product" style="swimlane;fontStyle=0;childLayout=stackLayout;horizontal=1;startSize=26;fillColor=none;horizontalStack=0;resizeParent=1;resizeParentMax=0;resizeLast=0;collapsible=1;marginBottom=0;align=left;verticalAlign=top;" parent="1" vertex="1">
          <mxGeometry x="520" y="2" width="140" height="104" as="geometry" />
        </mxCell>
        <mxCell id="VcC2zESvDWYvlx2e1C_T-48" value="+Name:String" style="text;strokeColor=none;fillColor=none;align=left;verticalAlign=top;spacingLeft=4;spacingRight=4;overflow=hidden;rotatable=0;points=[[0,0.5],[1,0.5]];portConstraint=eastwest;" parent="VcC2zESvDWYvlx2e1C_T-47" vertex="1">
          <mxGeometry y="26" width="140" height="26" as="geometry" />
        </mxCell>
        <mxCell id="VcC2zESvDWYvlx2e1C_T-49" value="+ ID: int" style="text;strokeColor=none;fillColor=none;align=left;verticalAlign=top;spacingLeft=4;spacingRight=4;overflow=hidden;rotatable=0;points=[[0,0.5],[1,0.5]];portConstraint=eastwest;" parent="VcC2zESvDWYvlx2e1C_T-47" vertex="1">
          <mxGeometry y="52" width="140" height="26" as="geometry" />
        </mxCell>
        <mxCell id="VcC2zESvDWYvlx2e1C_T-50" value="+ Price: Decimal" style="text;strokeColor=none;fillColor=none;align=left;verticalAlign=top;spacingLeft=4;spacingRight=4;overflow=hidden;rotatable=0;points=[[0,0.5],[1,0.5]];portConstraint=eastwest;" parent="VcC2zESvDWYvlx2e1C_T-47" vertex="1">
          <mxGeometry y="78" width="140" height="26" as="geometry" />
        </mxCell>
        <mxCell id="VcC2zESvDWYvlx2e1C_T-51" value="Order" style="swimlane;fontStyle=0;childLayout=stackLayout;horizontal=1;startSize=26;fillColor=none;horizontalStack=0;resizeParent=1;resizeParentMax=0;resizeLast=0;collapsible=1;marginBottom=0;align=left;verticalAlign=top;" parent="1" vertex="1">
          <mxGeometry x="520" y="120" width="150" height="52" as="geometry" />
        </mxCell>
        <mxCell id="VcC2zESvDWYvlx2e1C_T-52" value="+ ListOrder: List&lt;Product&gt;" style="text;strokeColor=none;fillColor=none;align=left;verticalAlign=top;spacingLeft=4;spacingRight=4;overflow=hidden;rotatable=0;points=[[0,0.5],[1,0.5]];portConstraint=eastwest;" parent="VcC2zESvDWYvlx2e1C_T-51" vertex="1">
          <mxGeometry y="26" width="150" height="26" as="geometry" />
        </mxCell>
        <mxCell id="VcC2zESvDWYvlx2e1C_T-55" value="Extends" style="endArrow=block;endSize=16;endFill=0;html=1;rounded=0;entryX=0.557;entryY=1.11;entryDx=0;entryDy=0;entryPerimeter=0;" parent="1" target="VcC2zESvDWYvlx2e1C_T-30" edge="1">
          <mxGeometry x="-0.25" width="160" relative="1" as="geometry">
            <mxPoint x="201" y="180" as="sourcePoint" />
            <mxPoint x="210" y="180" as="targetPoint" />
            <Array as="points" />
            <mxPoint as="offset" />
          </mxGeometry>
        </mxCell>
        <mxCell id="VcC2zESvDWYvlx2e1C_T-57" value="Extends" style="endArrow=block;endSize=16;endFill=0;html=1;rounded=0;exitX=0;exitY=0;exitDx=0;exitDy=0;entryX=0.346;entryY=1.11;entryDx=0;entryDy=0;entryPerimeter=0;" parent="1" source="VcC2zESvDWYvlx2e1C_T-39" target="VcC2zESvDWYvlx2e1C_T-30" edge="1">
          <mxGeometry x="-0.3333" width="160" relative="1" as="geometry">
            <mxPoint x="250" y="330" as="sourcePoint" />
            <mxPoint x="220" y="140" as="targetPoint" />
            <mxPoint as="offset" />
          </mxGeometry>
        </mxCell>
        <mxCell id="VcC2zESvDWYvlx2e1C_T-58" value="Extends" style="endArrow=block;endSize=16;endFill=0;html=1;rounded=0;exitX=0.25;exitY=0;exitDx=0;exitDy=0;entryX=0.146;entryY=1.049;entryDx=0;entryDy=0;entryPerimeter=0;" parent="1" source="VcC2zESvDWYvlx2e1C_T-43" target="VcC2zESvDWYvlx2e1C_T-30" edge="1">
          <mxGeometry width="160" relative="1" as="geometry">
            <mxPoint x="100" y="260" as="sourcePoint" />
            <mxPoint x="260" y="260" as="targetPoint" />
          </mxGeometry>
        </mxCell>
        <mxCell id="8egio01uLIIm_0bwqEkk-1" value="Extends" style="endArrow=block;endSize=16;endFill=0;html=1;rounded=0;exitX=0.08;exitY=-0.077;exitDx=0;exitDy=0;exitPerimeter=0;entryX=1.02;entryY=-0.054;entryDx=0;entryDy=0;entryPerimeter=0;" parent="1" source="VcC2zESvDWYvlx2e1C_T-35" target="VcC2zESvDWYvlx2e1C_T-30" edge="1">
          <mxGeometry width="160" relative="1" as="geometry">
            <mxPoint x="450" y="260" as="sourcePoint" />
            <mxPoint x="610" y="260" as="targetPoint" />
          </mxGeometry>
        </mxCell>
      </root>
    </mxGraphModel>
  </diagram>
  <diagram id="T-K8upI9AoFv0o78gX_J" name="Диаграмма использования">
    <mxGraphModel dx="990" dy="575" grid="1" gridSize="10" guides="1" tooltips="1" connect="1" arrows="1" fold="1" page="1" pageScale="1" pageWidth="827" pageHeight="1169" math="0" shadow="0">
      <root>
        <mxCell id="yzoJFi5B4Sl-vl-E5gJT-0" />
        <mxCell id="yzoJFi5B4Sl-vl-E5gJT-1" parent="yzoJFi5B4Sl-vl-E5gJT-0" />
        <mxCell id="uDJ4rohaTHxcsm31NgfW-1" value="Client" style="shape=umlActor;verticalLabelPosition=bottom;verticalAlign=top;html=1;" parent="yzoJFi5B4Sl-vl-E5gJT-1" vertex="1">
          <mxGeometry x="660" y="140" width="40" height="60" as="geometry" />
        </mxCell>
        <mxCell id="uDJ4rohaTHxcsm31NgfW-4" value="Отдает заказ" style="ellipse;whiteSpace=wrap;html=1;" parent="yzoJFi5B4Sl-vl-E5gJT-1" vertex="1">
          <mxGeometry x="510" y="10" width="110" height="70" as="geometry" />
        </mxCell>
        <mxCell id="uDJ4rohaTHxcsm31NgfW-5" value="Manager" style="shape=umlActor;verticalLabelPosition=bottom;verticalAlign=top;html=1;" parent="yzoJFi5B4Sl-vl-E5gJT-1" vertex="1">
          <mxGeometry x="90" y="50" width="30" height="60" as="geometry" />
        </mxCell>
        <mxCell id="U36iBD4jk8vwq8czxMkD-0" value="Storekeeper" style="shape=umlActor;verticalLabelPosition=bottom;verticalAlign=top;html=1;outlineConnect=0;" parent="yzoJFi5B4Sl-vl-E5gJT-1" vertex="1">
          <mxGeometry x="210" y="270" width="30" height="60" as="geometry" />
        </mxCell>
        <mxCell id="xXfTTCn3cM13a7Rbhfoi-3" value="Driver" style="shape=umlActor;verticalLabelPosition=bottom;verticalAlign=top;html=1;outlineConnect=0;" parent="yzoJFi5B4Sl-vl-E5gJT-1" vertex="1">
          <mxGeometry x="414" y="310" width="30" height="60" as="geometry" />
        </mxCell>
        <mxCell id="4ZvGtSIWValzyFxusdxC-0" value="Принимает заказ" style="ellipse;whiteSpace=wrap;html=1;" vertex="1" parent="yzoJFi5B4Sl-vl-E5gJT-1">
          <mxGeometry x="320" y="10" width="106" height="70" as="geometry" />
        </mxCell>
        <mxCell id="4ZvGtSIWValzyFxusdxC-1" value="Собирает заказ" style="ellipse;whiteSpace=wrap;html=1;" vertex="1" parent="yzoJFi5B4Sl-vl-E5gJT-1">
          <mxGeometry x="10" y="440" width="140" height="70" as="geometry" />
        </mxCell>
        <mxCell id="4ZvGtSIWValzyFxusdxC-2" value="Доставляет заказ" style="ellipse;whiteSpace=wrap;html=1;" vertex="1" parent="yzoJFi5B4Sl-vl-E5gJT-1">
          <mxGeometry x="590" y="440" width="140" height="70" as="geometry" />
        </mxCell>
        <mxCell id="4ZvGtSIWValzyFxusdxC-7" value="" style="endArrow=none;html=1;edgeStyle=orthogonalEdgeStyle;rounded=0;exitX=0.5;exitY=1;exitDx=0;exitDy=0;" edge="1" parent="yzoJFi5B4Sl-vl-E5gJT-1" source="uDJ4rohaTHxcsm31NgfW-4">
          <mxGeometry relative="1" as="geometry">
            <mxPoint x="510" y="150" as="sourcePoint" />
            <mxPoint x="670" y="160" as="targetPoint" />
            <Array as="points">
              <mxPoint x="535" y="80" />
              <mxPoint x="535" y="160" />
              <mxPoint x="670" y="160" />
            </Array>
          </mxGeometry>
        </mxCell>
        <mxCell id="4ZvGtSIWValzyFxusdxC-10" value="" style="endArrow=none;html=1;edgeStyle=orthogonalEdgeStyle;rounded=0;entryX=0.006;entryY=0.689;entryDx=0;entryDy=0;entryPerimeter=0;" edge="1" parent="yzoJFi5B4Sl-vl-E5gJT-1" target="4ZvGtSIWValzyFxusdxC-0">
          <mxGeometry relative="1" as="geometry">
            <mxPoint x="114" y="70" as="sourcePoint" />
            <mxPoint x="274" y="70" as="targetPoint" />
          </mxGeometry>
        </mxCell>
        <mxCell id="4ZvGtSIWValzyFxusdxC-16" value="" style="endArrow=none;html=1;edgeStyle=orthogonalEdgeStyle;rounded=0;entryX=0;entryY=0.3333333333333333;entryDx=0;entryDy=0;entryPerimeter=0;" edge="1" parent="yzoJFi5B4Sl-vl-E5gJT-1" target="U36iBD4jk8vwq8czxMkD-0">
          <mxGeometry relative="1" as="geometry">
            <mxPoint x="80" y="440" as="sourcePoint" />
            <mxPoint x="165" y="220" as="targetPoint" />
            <Array as="points">
              <mxPoint x="80" y="220" />
              <mxPoint x="180" y="220" />
              <mxPoint x="180" y="290" />
            </Array>
          </mxGeometry>
        </mxCell>
        <mxCell id="4ZvGtSIWValzyFxusdxC-74" value="" style="edgeStyle=orthogonalEdgeStyle;rounded=0;orthogonalLoop=1;jettySize=auto;html=1;" edge="1" parent="yzoJFi5B4Sl-vl-E5gJT-1" source="4ZvGtSIWValzyFxusdxC-19" target="4ZvGtSIWValzyFxusdxC-24">
          <mxGeometry relative="1" as="geometry" />
        </mxCell>
        <mxCell id="4ZvGtSIWValzyFxusdxC-19" value="Передает товар" style="ellipse;whiteSpace=wrap;html=1;" vertex="1" parent="yzoJFi5B4Sl-vl-E5gJT-1">
          <mxGeometry x="590" y="350" width="140" height="70" as="geometry" />
        </mxCell>
        <mxCell id="4ZvGtSIWValzyFxusdxC-20" value="" style="endArrow=none;html=1;edgeStyle=orthogonalEdgeStyle;rounded=0;exitX=1;exitY=0.3333333333333333;exitDx=0;exitDy=0;exitPerimeter=0;" edge="1" parent="yzoJFi5B4Sl-vl-E5gJT-1" source="xXfTTCn3cM13a7Rbhfoi-3">
          <mxGeometry relative="1" as="geometry">
            <mxPoint x="450" y="330" as="sourcePoint" />
            <mxPoint x="590" y="480" as="targetPoint" />
            <Array as="points">
              <mxPoint x="450" y="330" />
              <mxPoint x="450" y="480" />
            </Array>
          </mxGeometry>
        </mxCell>
        <mxCell id="4ZvGtSIWValzyFxusdxC-23" value="Передает товар" style="ellipse;whiteSpace=wrap;html=1;" vertex="1" parent="yzoJFi5B4Sl-vl-E5gJT-1">
          <mxGeometry x="100" y="560" width="140" height="70" as="geometry" />
        </mxCell>
        <mxCell id="4ZvGtSIWValzyFxusdxC-24" value="Принимает товар" style="ellipse;whiteSpace=wrap;html=1;" vertex="1" parent="yzoJFi5B4Sl-vl-E5gJT-1">
          <mxGeometry x="610" y="240" width="140" height="70" as="geometry" />
        </mxCell>
        <mxCell id="4ZvGtSIWValzyFxusdxC-26" value="" style="endArrow=none;html=1;edgeStyle=orthogonalEdgeStyle;rounded=0;entryX=1;entryY=0.5;entryDx=0;entryDy=0;" edge="1" parent="yzoJFi5B4Sl-vl-E5gJT-1" target="4ZvGtSIWValzyFxusdxC-24">
          <mxGeometry relative="1" as="geometry">
            <mxPoint x="700" y="160" as="sourcePoint" />
            <mxPoint x="800" y="260" as="targetPoint" />
          </mxGeometry>
        </mxCell>
        <mxCell id="4ZvGtSIWValzyFxusdxC-38" value="Принимает товар" style="ellipse;whiteSpace=wrap;html=1;" vertex="1" parent="yzoJFi5B4Sl-vl-E5gJT-1">
          <mxGeometry x="330" y="510" width="140" height="70" as="geometry" />
        </mxCell>
        <mxCell id="4ZvGtSIWValzyFxusdxC-39" value="" style="endArrow=none;html=1;edgeStyle=orthogonalEdgeStyle;rounded=0;exitX=0.224;exitY=0.085;exitDx=0;exitDy=0;exitPerimeter=0;" edge="1" parent="yzoJFi5B4Sl-vl-E5gJT-1" source="4ZvGtSIWValzyFxusdxC-38">
          <mxGeometry relative="1" as="geometry">
            <mxPoint x="363" y="510" as="sourcePoint" />
            <mxPoint x="420" y="330" as="targetPoint" />
            <Array as="points">
              <mxPoint x="363" y="516" />
              <mxPoint x="363" y="390" />
              <mxPoint x="320" y="390" />
              <mxPoint x="320" y="330" />
            </Array>
          </mxGeometry>
        </mxCell>
        <mxCell id="4ZvGtSIWValzyFxusdxC-49" value="" style="endArrow=none;html=1;edgeStyle=orthogonalEdgeStyle;rounded=0;exitX=1;exitY=0.3333333333333333;exitDx=0;exitDy=0;exitPerimeter=0;entryX=0.5;entryY=0;entryDx=0;entryDy=0;" edge="1" parent="yzoJFi5B4Sl-vl-E5gJT-1" source="U36iBD4jk8vwq8czxMkD-0" target="4ZvGtSIWValzyFxusdxC-23">
          <mxGeometry relative="1" as="geometry">
            <mxPoint x="230" y="290" as="sourcePoint" />
            <mxPoint x="170" y="550" as="targetPoint" />
          </mxGeometry>
        </mxCell>
        <mxCell id="4ZvGtSIWValzyFxusdxC-57" value="" style="endArrow=none;html=1;edgeStyle=orthogonalEdgeStyle;rounded=0;" edge="1" parent="yzoJFi5B4Sl-vl-E5gJT-1">
          <mxGeometry relative="1" as="geometry">
            <mxPoint x="450" y="384.67" as="sourcePoint" />
            <mxPoint x="590" y="385" as="targetPoint" />
            <Array as="points">
              <mxPoint x="560" y="385" />
              <mxPoint x="560" y="385" />
            </Array>
          </mxGeometry>
        </mxCell>
        <mxCell id="4ZvGtSIWValzyFxusdxC-60" value="Передает заказ" style="ellipse;whiteSpace=wrap;html=1;" vertex="1" parent="yzoJFi5B4Sl-vl-E5gJT-1">
          <mxGeometry x="10" y="140" width="100" height="40" as="geometry" />
        </mxCell>
        <mxCell id="4ZvGtSIWValzyFxusdxC-61" value="Принимает заказ" style="ellipse;whiteSpace=wrap;html=1;" vertex="1" parent="yzoJFi5B4Sl-vl-E5gJT-1">
          <mxGeometry x="190" y="140" width="100" height="40" as="geometry" />
        </mxCell>
        <mxCell id="4ZvGtSIWValzyFxusdxC-62" value="" style="endArrow=none;html=1;edgeStyle=orthogonalEdgeStyle;rounded=0;exitX=0.444;exitY=0;exitDx=0;exitDy=0;exitPerimeter=0;" edge="1" parent="yzoJFi5B4Sl-vl-E5gJT-1" source="4ZvGtSIWValzyFxusdxC-60">
          <mxGeometry relative="1" as="geometry">
            <mxPoint x="50" y="70" as="sourcePoint" />
            <mxPoint x="90" y="70" as="targetPoint" />
            <Array as="points">
              <mxPoint x="50" y="70" />
            </Array>
          </mxGeometry>
        </mxCell>
        <mxCell id="4ZvGtSIWValzyFxusdxC-65" value="" style="endArrow=none;html=1;edgeStyle=orthogonalEdgeStyle;rounded=0;exitX=1;exitY=0.5;exitDx=0;exitDy=0;" edge="1" parent="yzoJFi5B4Sl-vl-E5gJT-1" source="4ZvGtSIWValzyFxusdxC-61">
          <mxGeometry relative="1" as="geometry">
            <mxPoint x="220" y="210" as="sourcePoint" />
            <mxPoint x="250" y="290" as="targetPoint" />
          </mxGeometry>
        </mxCell>
        <mxCell id="4ZvGtSIWValzyFxusdxC-68" value="" style="endArrow=block;endFill=1;html=1;edgeStyle=orthogonalEdgeStyle;align=left;verticalAlign=top;rounded=0;entryX=0;entryY=0.5;entryDx=0;entryDy=0;" edge="1" parent="yzoJFi5B4Sl-vl-E5gJT-1" target="4ZvGtSIWValzyFxusdxC-61">
          <mxGeometry x="-1" relative="1" as="geometry">
            <mxPoint x="110" y="159.67000000000002" as="sourcePoint" />
            <mxPoint x="160" y="159.67000000000002" as="targetPoint" />
          </mxGeometry>
        </mxCell>
        <mxCell id="4ZvGtSIWValzyFxusdxC-70" value="" style="endArrow=block;endFill=1;html=1;edgeStyle=orthogonalEdgeStyle;align=left;verticalAlign=top;rounded=0;exitX=0.987;exitY=0.612;exitDx=0;exitDy=0;exitPerimeter=0;" edge="1" parent="yzoJFi5B4Sl-vl-E5gJT-1" source="4ZvGtSIWValzyFxusdxC-23" target="4ZvGtSIWValzyFxusdxC-38">
          <mxGeometry x="-0.75" y="-10" relative="1" as="geometry">
            <mxPoint x="240" y="610" as="sourcePoint" />
            <mxPoint x="400" y="610" as="targetPoint" />
            <mxPoint as="offset" />
          </mxGeometry>
        </mxCell>
        <mxCell id="4ZvGtSIWValzyFxusdxC-72" value="" style="endArrow=block;endFill=1;html=1;edgeStyle=orthogonalEdgeStyle;align=left;verticalAlign=top;rounded=0;entryX=0.5;entryY=1;entryDx=0;entryDy=0;" edge="1" parent="yzoJFi5B4Sl-vl-E5gJT-1" target="4ZvGtSIWValzyFxusdxC-24">
          <mxGeometry x="-1" relative="1" as="geometry">
            <mxPoint x="660" y="350" as="sourcePoint" />
            <mxPoint x="820" y="350" as="targetPoint" />
          </mxGeometry>
        </mxCell>
        <mxCell id="4ZvGtSIWValzyFxusdxC-75" value="" style="endArrow=block;endFill=1;html=1;edgeStyle=orthogonalEdgeStyle;align=left;verticalAlign=top;rounded=0;exitX=0;exitY=0.5;exitDx=0;exitDy=0;entryX=1;entryY=0.5;entryDx=0;entryDy=0;" edge="1" parent="yzoJFi5B4Sl-vl-E5gJT-1" source="uDJ4rohaTHxcsm31NgfW-4" target="4ZvGtSIWValzyFxusdxC-0">
          <mxGeometry x="-1" relative="1" as="geometry">
            <mxPoint x="480" y="140" as="sourcePoint" />
            <mxPoint x="640" y="140" as="targetPoint" />
          </mxGeometry>
        </mxCell>
      </root>
    </mxGraphModel>
  </diagram>
  <diagram id="zm-MZyEpPcvo41VdQMS8" name="Диаграмма взаимодействия">
    <mxGraphModel dx="660" dy="383" grid="1" gridSize="10" guides="1" tooltips="1" connect="1" arrows="1" fold="1" page="1" pageScale="1" pageWidth="827" pageHeight="1169" math="0" shadow="0">
      <root>
        <mxCell id="GclGuV8l0EiIcdp4lhlM-0" />
        <mxCell id="GclGuV8l0EiIcdp4lhlM-1" parent="GclGuV8l0EiIcdp4lhlM-0" />
        <mxCell id="GclGuV8l0EiIcdp4lhlM-8" value="Client" style="shape=umlActor;verticalLabelPosition=bottom;verticalAlign=top;html=1;" vertex="1" parent="GclGuV8l0EiIcdp4lhlM-1">
          <mxGeometry x="40" width="30" height="60" as="geometry" />
        </mxCell>
        <mxCell id="GclGuV8l0EiIcdp4lhlM-9" value="Обработка заказа" style="rounded=0;whiteSpace=wrap;html=1;" vertex="1" parent="GclGuV8l0EiIcdp4lhlM-1">
          <mxGeometry x="120" y="40" width="90" height="40" as="geometry" />
        </mxCell>
        <mxCell id="GclGuV8l0EiIcdp4lhlM-10" value="Сборка" style="rounded=0;whiteSpace=wrap;html=1;" vertex="1" parent="GclGuV8l0EiIcdp4lhlM-1">
          <mxGeometry x="240" y="40" width="80" height="40" as="geometry" />
        </mxCell>
        <mxCell id="GclGuV8l0EiIcdp4lhlM-11" value="Доставка" style="rounded=0;whiteSpace=wrap;html=1;" vertex="1" parent="GclGuV8l0EiIcdp4lhlM-1">
          <mxGeometry x="350" y="40" width="70" height="40" as="geometry" />
        </mxCell>
        <mxCell id="GclGuV8l0EiIcdp4lhlM-12" value="Приемка товара" style="rounded=0;whiteSpace=wrap;html=1;" vertex="1" parent="GclGuV8l0EiIcdp4lhlM-1">
          <mxGeometry x="440" y="40" width="100" height="40" as="geometry" />
        </mxCell>
        <mxCell id="GclGuV8l0EiIcdp4lhlM-13" value="Оплата" style="rounded=0;whiteSpace=wrap;html=1;" vertex="1" parent="GclGuV8l0EiIcdp4lhlM-1">
          <mxGeometry x="560" y="40" width="80" height="40" as="geometry" />
        </mxCell>
        <mxCell id="GclGuV8l0EiIcdp4lhlM-16" value="" style="html=1;points=[];perimeter=orthogonalPerimeter;" vertex="1" parent="GclGuV8l0EiIcdp4lhlM-1">
          <mxGeometry x="50" y="80" width="10" height="440" as="geometry" />
        </mxCell>
        <mxCell id="GclGuV8l0EiIcdp4lhlM-17" value="" style="endArrow=none;dashed=1;html=1;rounded=0;entryX=0.413;entryY=1.055;entryDx=0;entryDy=0;entryPerimeter=0;startArrow=none;" edge="1" parent="GclGuV8l0EiIcdp4lhlM-1" source="GclGuV8l0EiIcdp4lhlM-18" target="GclGuV8l0EiIcdp4lhlM-9">
          <mxGeometry width="50" height="50" relative="1" as="geometry">
            <mxPoint x="157" y="400" as="sourcePoint" />
            <mxPoint x="160" y="120" as="targetPoint" />
          </mxGeometry>
        </mxCell>
        <mxCell id="GclGuV8l0EiIcdp4lhlM-18" value="" style="html=1;points=[];perimeter=orthogonalPerimeter;" vertex="1" parent="GclGuV8l0EiIcdp4lhlM-1">
          <mxGeometry x="155" y="100" width="10" height="40" as="geometry" />
        </mxCell>
        <mxCell id="GclGuV8l0EiIcdp4lhlM-19" value="" style="endArrow=none;dashed=1;html=1;rounded=0;entryX=0.413;entryY=1.055;entryDx=0;entryDy=0;entryPerimeter=0;" edge="1" parent="GclGuV8l0EiIcdp4lhlM-1" target="GclGuV8l0EiIcdp4lhlM-18">
          <mxGeometry width="50" height="50" relative="1" as="geometry">
            <mxPoint x="159" y="240" as="sourcePoint" />
            <mxPoint x="157.17000000000007" y="82.20000000000005" as="targetPoint" />
          </mxGeometry>
        </mxCell>
        <mxCell id="GclGuV8l0EiIcdp4lhlM-20" value="" style="endArrow=none;dashed=1;html=1;rounded=0;entryX=0.5;entryY=1;entryDx=0;entryDy=0;startArrow=none;" edge="1" parent="GclGuV8l0EiIcdp4lhlM-1" source="GclGuV8l0EiIcdp4lhlM-22" target="GclGuV8l0EiIcdp4lhlM-10">
          <mxGeometry width="50" height="50" relative="1" as="geometry">
            <mxPoint x="280" y="240" as="sourcePoint" />
            <mxPoint x="280" y="90" as="targetPoint" />
          </mxGeometry>
        </mxCell>
        <mxCell id="GclGuV8l0EiIcdp4lhlM-21" value="" style="endArrow=none;dashed=1;html=1;rounded=0;entryX=0.5;entryY=1;entryDx=0;entryDy=0;startArrow=none;" edge="1" parent="GclGuV8l0EiIcdp4lhlM-1" source="GclGuV8l0EiIcdp4lhlM-23" target="GclGuV8l0EiIcdp4lhlM-11">
          <mxGeometry width="50" height="50" relative="1" as="geometry">
            <mxPoint x="385" y="210" as="sourcePoint" />
            <mxPoint x="410" y="90" as="targetPoint" />
          </mxGeometry>
        </mxCell>
        <mxCell id="GclGuV8l0EiIcdp4lhlM-24" value="" style="endArrow=none;dashed=1;html=1;rounded=0;entryX=0.5;entryY=1;entryDx=0;entryDy=0;" edge="1" parent="GclGuV8l0EiIcdp4lhlM-1" target="GclGuV8l0EiIcdp4lhlM-23">
          <mxGeometry width="50" height="50" relative="1" as="geometry">
            <mxPoint x="385" y="180" as="sourcePoint" />
            <mxPoint x="385" y="80" as="targetPoint" />
          </mxGeometry>
        </mxCell>
        <mxCell id="GclGuV8l0EiIcdp4lhlM-25" value="" style="endArrow=none;dashed=1;html=1;rounded=0;entryX=0.387;entryY=1.045;entryDx=0;entryDy=0;entryPerimeter=0;startArrow=none;" edge="1" parent="GclGuV8l0EiIcdp4lhlM-1" source="GclGuV8l0EiIcdp4lhlM-26" target="GclGuV8l0EiIcdp4lhlM-12">
          <mxGeometry width="50" height="50" relative="1" as="geometry">
            <mxPoint x="479" y="210" as="sourcePoint" />
            <mxPoint x="480" y="100" as="targetPoint" />
          </mxGeometry>
        </mxCell>
        <mxCell id="GclGuV8l0EiIcdp4lhlM-26" value="" style="html=1;points=[];perimeter=orthogonalPerimeter;" vertex="1" parent="GclGuV8l0EiIcdp4lhlM-1">
          <mxGeometry x="475" y="200" width="10" height="40" as="geometry" />
        </mxCell>
        <mxCell id="GclGuV8l0EiIcdp4lhlM-27" value="" style="endArrow=none;dashed=1;html=1;rounded=0;entryX=0.387;entryY=1.045;entryDx=0;entryDy=0;entryPerimeter=0;" edge="1" parent="GclGuV8l0EiIcdp4lhlM-1" target="GclGuV8l0EiIcdp4lhlM-26">
          <mxGeometry width="50" height="50" relative="1" as="geometry">
            <mxPoint x="479" y="210" as="sourcePoint" />
            <mxPoint x="478.70000000000005" y="81.80000000000001" as="targetPoint" />
          </mxGeometry>
        </mxCell>
        <mxCell id="GclGuV8l0EiIcdp4lhlM-28" value="" style="endArrow=none;dashed=1;html=1;rounded=0;entryX=0.5;entryY=1;entryDx=0;entryDy=0;" edge="1" parent="GclGuV8l0EiIcdp4lhlM-1" source="GclGuV8l0EiIcdp4lhlM-29" target="GclGuV8l0EiIcdp4lhlM-13">
          <mxGeometry width="50" height="50" relative="1" as="geometry">
            <mxPoint x="600" y="280" as="sourcePoint" />
            <mxPoint x="630" y="100" as="targetPoint" />
          </mxGeometry>
        </mxCell>
        <mxCell id="GclGuV8l0EiIcdp4lhlM-29" value="" style="html=1;points=[];perimeter=orthogonalPerimeter;" vertex="1" parent="GclGuV8l0EiIcdp4lhlM-1">
          <mxGeometry x="595" y="240" width="10" height="40" as="geometry" />
        </mxCell>
        <mxCell id="GclGuV8l0EiIcdp4lhlM-23" value="" style="html=1;points=[];perimeter=orthogonalPerimeter;" vertex="1" parent="GclGuV8l0EiIcdp4lhlM-1">
          <mxGeometry x="380" y="170" width="10" height="50" as="geometry" />
        </mxCell>
        <mxCell id="vptWVDnYE_0cvhiA7wp_-0" value="" style="endArrow=none;dashed=1;html=1;rounded=0;entryX=0.5;entryY=1;entryDx=0;entryDy=0;startArrow=none;" edge="1" parent="GclGuV8l0EiIcdp4lhlM-1" target="GclGuV8l0EiIcdp4lhlM-23">
          <mxGeometry width="50" height="50" relative="1" as="geometry">
            <mxPoint x="385" y="210" as="sourcePoint" />
            <mxPoint x="385" y="80" as="targetPoint" />
          </mxGeometry>
        </mxCell>
        <mxCell id="vptWVDnYE_0cvhiA7wp_-1" value="Order" style="endArrow=block;endFill=1;html=1;edgeStyle=orthogonalEdgeStyle;align=left;verticalAlign=top;rounded=0;" edge="1" parent="GclGuV8l0EiIcdp4lhlM-1">
          <mxGeometry x="0.0217" relative="1" as="geometry">
            <mxPoint x="65" y="140" as="sourcePoint" />
            <mxPoint x="155" y="138" as="targetPoint" />
            <Array as="points">
              <mxPoint x="65" y="138" />
            </Array>
            <mxPoint as="offset" />
          </mxGeometry>
        </mxCell>
        <mxCell id="vptWVDnYE_0cvhiA7wp_-3" value="" style="endArrow=block;endFill=1;html=1;edgeStyle=orthogonalEdgeStyle;align=left;verticalAlign=top;rounded=0;" edge="1" parent="GclGuV8l0EiIcdp4lhlM-1">
          <mxGeometry x="-1" relative="1" as="geometry">
            <mxPoint x="165" y="140" as="sourcePoint" />
            <mxPoint x="275" y="140" as="targetPoint" />
          </mxGeometry>
        </mxCell>
        <mxCell id="vptWVDnYE_0cvhiA7wp_-5" value="" style="endArrow=block;endFill=1;html=1;edgeStyle=orthogonalEdgeStyle;align=left;verticalAlign=top;rounded=0;" edge="1" parent="GclGuV8l0EiIcdp4lhlM-1">
          <mxGeometry x="-1" relative="1" as="geometry">
            <mxPoint x="280" y="160" as="sourcePoint" />
            <mxPoint x="380" y="170" as="targetPoint" />
            <Array as="points">
              <mxPoint x="280" y="170" />
              <mxPoint x="380" y="170" />
            </Array>
          </mxGeometry>
        </mxCell>
        <mxCell id="vptWVDnYE_0cvhiA7wp_-6" value="1" style="edgeLabel;resizable=0;html=1;align=left;verticalAlign=bottom;" connectable="0" vertex="1" parent="vptWVDnYE_0cvhiA7wp_-5">
          <mxGeometry x="-1" relative="1" as="geometry" />
        </mxCell>
        <mxCell id="vptWVDnYE_0cvhiA7wp_-7" value="" style="html=1;points=[];perimeter=orthogonalPerimeter;" vertex="1" parent="GclGuV8l0EiIcdp4lhlM-1">
          <mxGeometry x="595" y="90" width="10" height="40" as="geometry" />
        </mxCell>
        <mxCell id="GclGuV8l0EiIcdp4lhlM-22" value="" style="html=1;points=[];perimeter=orthogonalPerimeter;" vertex="1" parent="GclGuV8l0EiIcdp4lhlM-1">
          <mxGeometry x="275" y="140" width="10" height="30" as="geometry" />
        </mxCell>
        <mxCell id="vptWVDnYE_0cvhiA7wp_-8" value="" style="endArrow=none;dashed=1;html=1;rounded=0;entryX=0.5;entryY=1;entryDx=0;entryDy=0;" edge="1" parent="GclGuV8l0EiIcdp4lhlM-1" target="GclGuV8l0EiIcdp4lhlM-22">
          <mxGeometry width="50" height="50" relative="1" as="geometry">
            <mxPoint x="280" y="240" as="sourcePoint" />
            <mxPoint x="280" y="80" as="targetPoint" />
          </mxGeometry>
        </mxCell>
        <mxCell id="vptWVDnYE_0cvhiA7wp_-9" value="invoice" style="endArrow=block;endFill=1;html=1;edgeStyle=orthogonalEdgeStyle;align=left;verticalAlign=top;rounded=0;entryX=1.053;entryY=0.06;entryDx=0;entryDy=0;entryPerimeter=0;" edge="1" parent="GclGuV8l0EiIcdp4lhlM-1" target="GclGuV8l0EiIcdp4lhlM-16">
          <mxGeometry x="-0.0064" y="-5" relative="1" as="geometry">
            <mxPoint x="155" y="105.3" as="sourcePoint" />
            <mxPoint x="65" y="115" as="targetPoint" />
            <Array as="points" />
            <mxPoint x="5" y="-5" as="offset" />
          </mxGeometry>
        </mxCell>
        <mxCell id="vptWVDnYE_0cvhiA7wp_-10" value="1" style="edgeLabel;resizable=0;html=1;align=left;verticalAlign=bottom;" connectable="0" vertex="1" parent="vptWVDnYE_0cvhiA7wp_-9">
          <mxGeometry x="-1" relative="1" as="geometry" />
        </mxCell>
        <mxCell id="vptWVDnYE_0cvhiA7wp_-11" value="pay" style="endArrow=block;endFill=1;html=1;edgeStyle=orthogonalEdgeStyle;align=left;verticalAlign=top;rounded=0;" edge="1" parent="GclGuV8l0EiIcdp4lhlM-1">
          <mxGeometry x="-0.3962" y="10" relative="1" as="geometry">
            <mxPoint x="60" y="90" as="sourcePoint" />
            <mxPoint x="590" y="90" as="targetPoint" />
            <mxPoint as="offset" />
          </mxGeometry>
        </mxCell>
        <mxCell id="vptWVDnYE_0cvhiA7wp_-13" value="" style="endArrow=block;endFill=1;html=1;edgeStyle=orthogonalEdgeStyle;align=left;verticalAlign=top;rounded=0;" edge="1" parent="GclGuV8l0EiIcdp4lhlM-1">
          <mxGeometry x="-1" relative="1" as="geometry">
            <mxPoint x="390" y="220" as="sourcePoint" />
            <mxPoint x="470" y="220" as="targetPoint" />
          </mxGeometry>
        </mxCell>
        <mxCell id="vptWVDnYE_0cvhiA7wp_-14" value="1" style="edgeLabel;resizable=0;html=1;align=left;verticalAlign=bottom;" connectable="0" vertex="1" parent="vptWVDnYE_0cvhiA7wp_-13">
          <mxGeometry x="-1" relative="1" as="geometry" />
        </mxCell>
        <mxCell id="vptWVDnYE_0cvhiA7wp_-15" value="invoice" style="endArrow=block;endFill=1;html=1;edgeStyle=orthogonalEdgeStyle;align=left;verticalAlign=top;rounded=0;" edge="1" parent="GclGuV8l0EiIcdp4lhlM-1">
          <mxGeometry x="-1" relative="1" as="geometry">
            <mxPoint x="490" y="240" as="sourcePoint" />
            <mxPoint x="600" y="240" as="targetPoint" />
          </mxGeometry>
        </mxCell>
        <mxCell id="vptWVDnYE_0cvhiA7wp_-16" value="1" style="edgeLabel;resizable=0;html=1;align=left;verticalAlign=bottom;" connectable="0" vertex="1" parent="vptWVDnYE_0cvhiA7wp_-15">
          <mxGeometry x="-1" relative="1" as="geometry" />
        </mxCell>
        <mxCell id="vptWVDnYE_0cvhiA7wp_-19" value="pay" style="endArrow=block;endFill=1;html=1;edgeStyle=orthogonalEdgeStyle;align=left;verticalAlign=top;rounded=0;" edge="1" parent="GclGuV8l0EiIcdp4lhlM-1">
          <mxGeometry x="-0.0189" y="20" relative="1" as="geometry">
            <mxPoint x="60" y="280" as="sourcePoint" />
            <mxPoint x="590" y="280" as="targetPoint" />
            <mxPoint as="offset" />
          </mxGeometry>
        </mxCell>
      </root>
    </mxGraphModel>
  </diagram>
</mxfile>
